:SAMPLES-PER-SECOND 30
:FULLY-SPECIFIED
:DEGREES
203
root  59.6662 25.1959 2.88617 162.908 -0.233627 -178.138
RightUpLeg  -60.6754 -5.84135 -1.35539
RightLeg  79.6006 -0.0439183 -2.22338
RightFoot  -1.09697 -0.0623855 0.615982
RightToes  0.000482159 0.542163 -0.142577
Spine  52.8365 -2.93192 7.05888
Spine1  -5.69068 -0.712622 0.27819
HEad  -22.694 5.33756 -5.2187
LeftShoulder1  9.64904 -15.3426 -44.5973
LeftArm  -14.5014 8.57253 -23.6145
LeftForeArm  166.861 -80.2321 -123.297
LeftHand  -0.25398 0.0180481 5.50724
RightShoulder  4.97713 9.63874 31.9273
RightArm  -14.7976 -14.7863 34.0212
RightForeArm  29.7318 76.4631 55.7817
RightHand  -0.357187 -3.11964 -17.263
LeftUpLeg  -61.9856 8.54293 2.45351
LeftLeg  76.456 2.11048 11.4802
LeftFoot  0.0987833 -0.149059 1.52303
LeftToes  1.06246e-005 4.65855e-005 -8.18503e-006
204
root  59.6716 25.3002 2.76243 164.536 -0.221954 -178.294
RightUpLeg  -61.9615 -5.61398 -1.46552
RightLeg  79.4355 -0.0868782 -2.46325
RightFoot  -1.79975 -0.122499 1.32106
RightToes  0.000482159 0.542163 -0.142577
Spine  54.2006 -2.91686 7.04154
Spine1  -5.9162 -0.646445 0.3506
HEad  -23.4277 5.48099 -5.4998
LeftShoulder1  9.50094 -15.3874 -43.7687
LeftArm  -16.3647 7.94174 -23.6773
LeftForeArm  170.532 -79.7298 -127.333
LeftHand  -0.25398 0.0180481 5.50724
RightShoulder  4.95178 9.64302 31.7213
RightArm  -16.8703 -15.9529 33.5698
RightForeArm  23.0121 76.3199 57.2698
RightHand  -0.967652 -0.197946 -21.5088
LeftUpLeg  -63.3525 8.82008 2.03984
LeftLeg  76.2942 2.21384 11.8003
LeftFoot  0.00257655 -0.144794 1.45465
LeftToes  1.06246e-005 4.65855e-005 -8.18503e-006
205
root  59.6857 25.4225 2.57915 166.462 -0.314178 -178.466
RightUpLeg  -63.5023 -5.36288 -1.64571
RightLeg  79.3757 -0.123222 -2.68415
RightFoot  -2.51382 -0.179265 2.10055
RightToes  0.000482159 0.542163 -0.142577
Spine  55.2736 -2.87082 6.91712
Spine1  -6.07051 -0.658017 0.592228
HEad  -23.7264 5.83613 -5.97061
LeftShoulder1  9.33576 -15.52 -42.6437
LeftArm  -18.409 7.60592 -23.9098
LeftForeArm  174.589 -79.0804 -131.644
LeftHand  -0.25398 0.0180481 5.50724
RightShoulder  4.85513 9.61601 31.0563
RightArm  -19.0339 -17.1276 33.5187
RightForeArm  18.9549 76.3644 59.2725
RightHand  -1.6497 2.38412 -24.603
LeftUpLeg  -64.9519 9.02253 1.49988
LeftLeg  76.1456 2.28865 11.9943
LeftFoot  -0.15077 -0.155071 1.59302
LeftToes  1.06246e-005 4.65855e-005 -8.18503e-006
206
root  59.7103 25.5806 2.33878 168.549 -0.439133 -178.706
RightUpLeg  -65.087 -5.06597 -1.91302
RightLeg  79.3796 -0.157687 -2.91134
RightFoot  -3.3275 -0.21738 2.77956
RightToes  0.000482159 0.542163 -0.142577
Spine  56.2442 -2.74653 6.60276
Spine1  -6.20396 -0.718486 1.01309
HEad  -23.4095 6.23913 -6.46812
LeftShoulder1  9.15657 -15.7376 -41.2565
LeftArm  -20.3628 7.73287 -24.2873
LeftForeArm  178.622 -78.1915 -136.299
LeftHand  -0.25398 0.0180481 5.50724
RightShoulder  4.64274 9.50176 29.728
RightArm  -21.1705 -18.2809 34.0658
RightForeArm  17.9191 76.4451 60.4836
RightHand  -2.10259 3.87587 -26.2581
LeftUpLeg  -66.5824 9.32651 0.814188
LeftLeg  75.9962 2.31198 11.9514
LeftFoot  -0.58722 -0.16621 1.80415
LeftToes  1.06246e-005 4.65855e-005 -8.18503e-006
207
root  59.7487 25.8063 2.03279 170.775 -0.518723 -179.028
RightUpLeg  -66.5881 -4.6554 -2.25309
RightLeg  79.2805 -0.215765 -3.25315
RightFoot  -4.20256 -0.225068 3.14443
RightToes  0.000482159 0.542163 -0.142577
Spine  57.2667 -2.523 6.07779
Spine1  -6.42768 -0.804621 1.55921
HEad  -22.7521 6.61242 -6.81736
LeftShoulder1  8.9584 -15.9438 -39.8176
LeftArm  -22.0523 8.17662 -24.5437
LeftForeArm  -178.532 -77.2729 -140.089
LeftHand  -0.25398 0.0180481 5.50724
RightShoulder  4.39588 9.33384 28.2413
RightArm  -22.8408 -19.366 34.5522
RightForeArm  17.9508 76.4612 60.6417
RightHand  -2.25342 4.33484 -26.7806
LeftUpLeg  -68.097 9.72008 0.0659064
LeftLeg  75.7636 2.30494 11.6957
LeftFoot  -1.36409 -0.148815 1.79715
LeftToes  1.06246e-005 4.65855e-005 -8.18503e-006
208
root  59.8079 26.1307 1.64073 173.158 -0.539627 -179.346
RightUpLeg  -67.911 -4.09959 -2.51988
RightLeg  78.9432 -0.328107 -3.8271
RightFoot  -5.0131 -0.192741 2.86216
RightToes  0.000482159 0.542163 -0.142577
Spine  58.3048 -2.28016 5.46873
Spine1  -6.80032 -0.92072 2.05787
HEad  -22.4017 7.1637 -7.20776
LeftShoulder1  8.72383 -16.0253 -38.488
LeftArm  -23.5596 8.64941 -24.6037
LeftForeArm  -176.972 -76.6351 -142.313
LeftHand  -0.25398 0.0180481 5.50724
RightShoulder  4.2802 9.29694 27.4124
RightArm  -23.7588 -20.3773 34.0648
RightForeArm  17.5175 76.4112 60.2743
RightHand  -2.20278 4.19783 -26.5536
LeftUpLeg  -69.3723 10.0109 -0.550495
LeftLeg  75.3253 2.31653 11.3429
LeftFoot  -2.2972 -0.111097 1.57968
LeftToes  1.06246e-005 4.65855e-005 -8.18503e-006
